<svg id="visual" viewBox="0 0 900 600" width="900" height="600" xmlns="http://www.w3.org/2000/svg" xmlns:xlink="http://www.w3.org/1999/xlink" version="1.1"><path d="M0 179L21.5 168.5C43 158 86 137 128.8 142.2C171.7 147.3 214.3 178.7 257.2 191C300 203.3 343 196.7 385.8 185.7C428.7 174.7 471.3 159.3 514.2 152.5C557 145.7 600 147.3 642.8 142.5C685.7 137.7 728.3 126.3 771.2 122.2C814 118 857 121 878.5 122.5L900 124L900 0L878.5 0C857 0 814 0 771.2 0C728.3 0 685.7 0 642.8 0C600 0 557 0 514.2 0C471.3 0 428.7 0 385.8 0C343 0 300 0 257.2 0C214.3 0 171.7 0 128.8 0C86 0 43 0 21.5 0L0 0Z" fill="#370617" stroke-linecap="round" stroke-linejoin="miter"></path></svg>