<svg id="visual" viewBox="0 0 900 600" width="900" height="600" xmlns="http://www.w3.org/2000/svg" xmlns:xlink="http://www.w3.org/1999/xlink" version="1.1"><path d="M0 392L21.5 387.3C43 382.7 86 373.3 128.8 374.5C171.7 375.7 214.3 387.3 257.2 397.7C300 408 343 417 385.8 421.7C428.7 426.3 471.3 426.7 514.2 414.3C557 402 600 377 642.8 380.7C685.7 384.3 728.3 416.7 771.2 419.2C814 421.7 857 394.3 878.5 380.7L900 367L900 601L878.5 601C857 601 814 601 771.2 601C728.3 601 685.7 601 642.8 601C600 601 557 601 514.2 601C471.3 601 428.7 601 385.8 601C343 601 300 601 257.2 601C214.3 601 171.7 601 128.8 601C86 601 43 601 21.5 601L0 601Z" fill="#f48c06"></path><path d="M0 423L21.5 421.2C43 419.3 86 415.7 128.8 411.8C171.7 408 214.3 404 257.2 410.8C300 417.7 343 435.3 385.8 437.2C428.7 439 471.3 425 514.2 429.2C557 433.3 600 455.7 642.8 457.5C685.7 459.3 728.3 440.7 771.2 435.8C814 431 857 440 878.5 444.5L900 449L900 601L878.5 601C857 601 814 601 771.2 601C728.3 601 685.7 601 642.8 601C600 601 557 601 514.2 601C471.3 601 428.7 601 385.8 601C343 601 300 601 257.2 601C214.3 601 171.7 601 128.8 601C86 601 43 601 21.5 601L0 601Z" fill="#cf5d25"></path><path d="M0 499L21.5 496C43 493 86 487 128.8 486.8C171.7 486.7 214.3 492.3 257.2 485.2C300 478 343 458 385.8 451.5C428.7 445 471.3 452 514.2 453C557 454 600 449 642.8 452.8C685.7 456.7 728.3 469.3 771.2 476.2C814 483 857 484 878.5 484.5L900 485L900 601L878.5 601C857 601 814 601 771.2 601C728.3 601 685.7 601 642.8 601C600 601 557 601 514.2 601C471.3 601 428.7 601 385.8 601C343 601 300 601 257.2 601C214.3 601 171.7 601 128.8 601C86 601 43 601 21.5 601L0 601Z" fill="#a0372b"></path><path d="M0 495L21.5 493.5C43 492 86 489 128.8 488.5C171.7 488 214.3 490 257.2 490.8C300 491.7 343 491.3 385.8 496.5C428.7 501.7 471.3 512.3 514.2 515C557 517.7 600 512.3 642.8 512C685.7 511.7 728.3 516.3 771.2 515.8C814 515.3 857 509.7 878.5 506.8L900 504L900 601L878.5 601C857 601 814 601 771.2 601C728.3 601 685.7 601 642.8 601C600 601 557 601 514.2 601C471.3 601 428.7 601 385.8 601C343 601 300 601 257.2 601C214.3 601 171.7 601 128.8 601C86 601 43 601 21.5 601L0 601Z" fill="#6c1a26"></path><path d="M0 561L21.5 555.3C43 549.7 86 538.3 128.8 537.7C171.7 537 214.3 547 257.2 549.7C300 552.3 343 547.7 385.8 544.8C428.7 542 471.3 541 514.2 545.8C557 550.7 600 561.3 642.8 561.2C685.7 561 728.3 550 771.2 543C814 536 857 533 878.5 531.5L900 530L900 601L878.5 601C857 601 814 601 771.2 601C728.3 601 685.7 601 642.8 601C600 601 557 601 514.2 601C471.3 601 428.7 601 385.8 601C343 601 300 601 257.2 601C214.3 601 171.7 601 128.8 601C86 601 43 601 21.5 601L0 601Z" fill="#370617"></path></svg>